<?xml version="1.0" standalone="no"?>
<!DOCTYPE svg PUBLIC "-//W3C//DTD SVG 20010904//EN"
 "http://www.w3.org/TR/2001/REC-SVG-20010904/DTD/svg10.dtd">
<svg version="1.0" xmlns="http://www.w3.org/2000/svg"
 width="16.000000pt" height="16.000000pt" viewBox="0 0 16.000000 16.000000"
 preserveAspectRatio="xMidYMid meet">
<metadata>
Created by potrace 1.11, written by Peter Selinger 2001-2013
</metadata>
<g transform="translate(0.000000,16.000000) scale(0.006667,-0.006667)"
fill="#000000" stroke="none">
<path d="M1013 2386 c-7 -8 -36 -17 -65 -21 -70 -9 -229 -62 -250 -83 -7 -7
-20 -12 -29 -12 -9 0 -22 -7 -29 -15 -7 -8 -19 -15 -27 -15 -8 0 -32 -13 -53
-30 -21 -16 -43 -30 -49 -30 -22 0 -259 -247 -305 -317 -25 -40 -46 -76 -46
-81 0 -5 -7 -15 -15 -22 -8 -7 -15 -20 -15 -30 0 -10 -7 -23 -15 -30 -8 -7
-15 -19 -15 -27 0 -8 -6 -29 -13 -46 -24 -56 -45 -130 -52 -180 -4 -26 -14
-54 -21 -62 -17 -17 -21 -341 -4 -347 6 -2 17 -37 25 -78 8 -41 20 -95 28
-120 12 -42 19 -60 52 -135 7 -16 16 -37 19 -45 3 -8 15 -28 26 -45 11 -16 23
-37 27 -45 22 -47 92 -134 176 -220 108 -110 292 -225 432 -270 39 -12 77 -25
86 -30 9 -4 42 -11 75 -15 32 -4 74 -14 93 -21 39 -16 261 -20 277 -4 5 5 45
15 89 21 44 6 85 15 90 19 6 4 25 11 43 15 18 4 45 13 60 21 15 8 32 14 37 14
30 0 194 96 287 167 31 23 61 43 67 43 15 0 14 -32 -3 -55 -7 -11 -19 -44 -27
-73 -10 -43 -11 -62 -1 -99 9 -32 10 -49 2 -57 -21 -21 -8 -26 75 -26 l85 0 0
40 c0 30 5 42 21 50 17 10 27 7 60 -16 22 -15 42 -38 45 -50 6 -22 11 -24 75
-24 l69 0 0 44 c0 30 -5 46 -15 50 -8 3 -15 14 -15 24 0 11 -7 25 -15 32 -18
15 -20 81 -4 97 9 9 9 20 0 44 -6 17 -11 46 -11 63 0 18 -5 37 -11 43 -13 13
-21 26 -73 125 l-39 73 27 55 c15 30 34 68 42 83 8 16 14 34 14 40 0 7 6 24
14 39 8 14 17 46 21 70 4 24 11 50 16 59 18 34 28 257 18 386 -6 70 -14 132
-19 138 -4 5 -11 30 -14 55 -4 25 -13 59 -21 75 -7 17 -21 48 -30 70 -45 107
-106 213 -147 257 -10 10 -18 21 -18 26 0 13 -163 167 -225 213 -79 58 -84 61
-194 115 -99 48 -149 65 -266 89 -38 8 -71 19 -73 25 -6 16 -334 12 -349 -4z
m141 -197 c12 -60 6 -302 -9 -364 -8 -33 -14 -77 -15 -98 0 -36 -14 -100 -47
-217 -19 -68 -21 -71 -32 -90 -9 -15 -27 -54 -75 -165 -15 -33 -33 -73 -41
-88 -21 -41 -21 -263 0 -303 8 -16 15 -37 15 -46 0 -23 67 -161 130 -268 75
-128 65 -178 -26 -125 -69 40 -163 140 -217 228 -26 43 -47 80 -47 83 0 3 -7
20 -15 37 -28 63 -39 124 -39 232 0 110 10 166 39 221 8 16 15 35 15 42 0 6 5
12 10 12 6 0 10 6 10 13 0 7 12 30 27 52 33 48 123 196 123 203 0 2 8 16 18
30 17 25 59 128 92 227 8 22 17 60 21 85 4 25 12 63 18 85 6 22 11 72 11 111
0 79 8 134 20 134 4 0 10 -14 14 -31z m-64 -68 c0 -17 -4 -33 -10 -36 -6 -4
-10 8 -10 29 0 20 5 36 10 36 6 0 10 -13 10 -29z m170 -91 c9 -30 20 -67 24
-82 10 -45 76 -146 120 -183 50 -44 39 -36 166 -113 36 -22 77 -51 92 -65 15
-14 31 -27 37 -28 15 -6 141 -118 211 -190 68 -69 124 -161 136 -224 l7 -38
-37 7 c-35 7 -37 5 -51 -29 -14 -32 -14 -38 1 -60 10 -15 14 -36 11 -52 -25
-127 -40 -157 -81 -165 -17 -4 -23 -1 -20 11 26 147 27 163 15 218 -14 66 -59
163 -98 214 -28 36 -240 249 -309 309 -107 96 -165 142 -170 137 -14 -13 12
-48 103 -142 127 -130 200 -213 238 -270 34 -51 85 -155 85 -173 0 -9 7 -37
16 -62 17 -47 14 -170 -4 -193 -5 -7 -13 -30 -17 -52 -9 -52 -58 -155 -107
-227 -51 -76 -30 -75 55 2 36 33 74 60 85 60 19 0 112 -37 112 -45 0 -18 -24
-45 -95 -105 -45 -38 -85 -70 -88 -70 -3 0 -25 -13 -49 -28 -49 -32 -123 -58
-188 -67 -41 -6 -49 -4 -80 25 -44 39 -94 65 -142 74 -58 11 -73 37 -127 231
-40 143 -58 374 -35 448 3 10 10 51 14 90 5 40 15 106 23 147 8 41 20 104 26
140 7 36 17 85 23 110 5 25 13 79 18 120 5 41 13 107 19 145 6 39 11 97 11
130 1 117 20 135 50 45z m-191 -36 c-4 -36 -12 -71 -18 -77 -6 -6 -11 -19 -11
-29 0 -24 -66 -165 -96 -205 -13 -17 -24 -34 -24 -37 0 -3 -14 -25 -30 -48
-17 -24 -41 -59 -54 -78 -13 -19 -52 -71 -87 -115 -84 -105 -122 -162 -158
-238 -30 -61 -65 -192 -57 -206 3 -4 10 -38 16 -74 18 -112 87 -226 214 -352
76 -75 192 -165 230 -178 5 -2 6 -9 2 -15 -10 -16 -65 -15 -96 3 -14 8 -36 15
-50 15 -14 0 -34 7 -44 15 -11 8 -26 15 -33 15 -21 0 -178 98 -228 142 -69 61
-136 173 -165 278 -7 25 -15 103 -17 173 -4 103 -1 138 13 180 24 75 80 192
106 224 54 65 265 263 305 287 21 11 41 33 88 91 22 28 45 55 51 60 16 14 74
104 74 114 0 5 7 14 15 21 8 7 15 23 15 36 0 36 18 74 33 69 10 -4 11 -21 6
-71z m781 -1248 c0 -3 -4 -8 -10 -11 -5 -3 -10 -1 -10 4 0 6 5 11 10 11 6 0
10 -2 10 -4z m-611 -405 c22 -17 24 -24 18 -73 -5 -54 -39 -138 -56 -138 -4 0
-16 30 -25 67 -18 75 -32 97 -41 67 -21 -67 -84 -146 -125 -157 -11 -3 -25 2
-31 10 -17 20 10 70 68 126 24 23 43 47 43 54 0 18 37 35 60 28 13 -4 22 1 30
15 13 25 28 25 59 1z m75 -46 c9 -14 37 -47 62 -73 26 -26 49 -56 53 -66 11
-27 1 -66 -16 -66 -21 0 -100 77 -123 122 -38 73 -17 146 24 83z"/>
<path d="M1285 1710 c3 -5 8 -10 11 -10 2 0 4 5 4 10 0 6 -5 10 -11 10 -5 0
-7 -4 -4 -10z"/>
</g>
</svg>
